{
  "accessors": [
    {
      "bufferView": 2,
      "componentType": 5126,
      "count": 4508,
      "max": [
        0.5568619966506958,
        1.4709019660949707,
        1.4306349754333496
      ],
      "min": [
        -0.30334800481796265,
        -1.4709019660949707,
        0.8153200149536133
      ],
      "type": "VEC3"
    },
    {
      "bufferView": 2,
      "byteOffset": 54096,
      "componentType": 5126,
      "count": 4508,
      "max": [
        1.0,
        0.9999580979347229,
        1.0
      ],
      "min": [
        -1.0,
        -0.9999580979347229,
        -1.0
      ],
      "type": "VEC3"
    },
    {
      "bufferView": 3,
      "componentType": 5126,
      "count": 4508,
      "max": [
        1.0,
        1.0,
        1.0,
        1.0
      ],
      "min": [
        -0.9999990463256836,
        -1.0,
        -1.0,
        -1.0
      ],
      "type": "VEC4"
    },
    {
      "bufferView": 1,
      "componentType": 5126,
      "count": 4508,
      "max": [
        0.9981110095977783,
        0.9984530210494995
      ],
      "min": [
        0.001541999983601272,
        0.0015180000336840749
      ],
      "type": "VEC2"
    },
    {
      "bufferView": 0,
      "componentType": 5125,
      "count": 12000,
      "type": "SCALAR"
    },
    {
      "bufferView": 2,
      "byteOffset": 108192,
      "componentType": 5126,
      "count": 19908,
      "max": [
        2.2873899936676025,
        1.7940119504928589,
        1.093479037284851
      ],
      "min": [
        -0.972819983959198,
        -1.7940119504928589,
        0.0
      ],
      "type": "VEC3"
    },
    {
      "bufferView": 2,
      "byteOffset": 347088,
      "componentType": 5126,
      "count": 19908,
      "max": [
        1.0,
        0.9993909001350403,
        0.9999845027923584
      ],
      "min": [
        -1.0,
        -0.9993909001350403,
        -0.9999991059303284
      ],
      "type": "VEC3"
    },
    {
      "bufferView": 3,
      "byteOffset": 72128,
      "componentType": 5126,
      "count": 19908,
      "max": [
        0.9967865347862244,
        1.0,
        1.0,
        1.0
      ],
      "min": [
        -0.9998154044151306,
        -1.0,
        -1.0,
        -1.0
      ],
      "type": "VEC4"
    },
    {
      "bufferView": 1,
      "byteOffset": 36064,
      "componentType": 5126,
      "count": 19908,
      "max": [
        0.9984650015830994,
        0.998458981513977
      ],
      "min": [
        0.0015360000543296337,
        0.0015360000543296337
      ],
      "type": "VEC2"
    },
    {
      "bufferView": 0,
      "byteOffset": 48000,
      "componentType": 5125,
      "count": 93960,
      "type": "SCALAR"
    },
    {
      "bufferView": 2,
      "byteOffset": 585984,
      "componentType": 5126,
      "count": 12646,
      "max": [
        1.586258053779602,
        1.7500089406967163,
        1.4996709823608398
      ],
      "min": [
        -0.42204201221466064,
        -1.7500089406967163,
        0.2909829914569855
      ],
      "type": "VEC3"
    },
    {
      "bufferView": 2,
      "byteOffset": 737736,
      "componentType": 5126,
      "count": 12646,
      "max": [
        1.0,
        1.0,
        1.0
      ],
      "min": [
        -1.0,
        -1.0,
        -1.0
      ],
      "type": "VEC3"
    },
    {
      "bufferView": 3,
      "byteOffset": 390656,
      "componentType": 5126,
      "count": 12646,
      "max": [
        1.0,
        1.0,
        1.0,
        1.0
      ],
      "min": [
        -1.0,
        -1.0,
        -1.0,
        -1.0
      ],
      "type": "VEC4"
    },
    {
      "bufferView": 1,
      "byteOffset": 195328,
      "componentType": 5126,
      "count": 12646,
      "max": [
        0.9983270168304443,
        0.998350977897644
      ],
      "min": [
        0.001639000023715198,
        0.001639000023715198
      ],
      "type": "VEC2"
    },
    {
      "bufferView": 0,
      "byteOffset": 423840,
      "componentType": 5125,
      "count": 44064,
      "type": "SCALAR"
    },
    {
      "bufferView": 2,
      "byteOffset": 889488,
      "componentType": 5126,
      "count": 11256,
      "max": [
        0.4078809916973114,
        0.7467269897460938,
        0.596593976020813
      ],
      "min": [
        -0.4097149968147278,
        -0.7467269897460938,
        0.13956399261951447
      ],
      "type": "VEC3"
    },
    {
      "bufferView": 2,
      "byteOffset": 1024560,
      "componentType": 5126,
      "count": 11256,
      "max": [
        1.0,
        1.0,
        1.0
      ],
      "min": [
        -1.0,
        -1.0,
        -1.0
      ],
      "type": "VEC3"
    },
    {
      "bufferView": 3,
      "byteOffset": 592992,
      "componentType": 5126,
      "count": 11256,
      "max": [
        1.0,
        1.0,
        1.0,
        1.0
      ],
      "min": [
        -1.0,
        -1.0,
        -1.0,
        -1.0
      ],
      "type": "VEC4"
    },
    {
      "bufferView": 1,
      "byteOffset": 296496,
      "componentType": 5126,
      "count": 11256,
      "max": [
        0.998088002204895,
        0.9984449744224548
      ],
      "min": [
        0.001551999943330884,
        0.001551999943330884
      ],
      "type": "VEC2"
    },
    {
      "bufferView": 0,
      "byteOffset": 600096,
      "componentType": 5125,
      "count": 44949,
      "type": "SCALAR"
    }
  ],
  "asset": {
    "extras": {
      "author": "ParienteChido (https://sketchfab.com/ParienteChido)",
      "license": "CC-BY-4.0 (http://creativecommons.org/licenses/by/4.0/)",
      "source": "https://sketchfab.com/3d-models/star-wars-storm-iv-twin-pod-cloud-car-9bc20239f9c34ed1baacb9a49ba9377d",
      "title": "Star Wars Storm IV Twin-Pod Cloud Car"
    },
    "generator": "Sketchfab-16.53.0",
    "version": "2.0"
  },
  "bufferViews": [
    {
      "buffer": 0,
      "byteLength": 779892,
      "name": "floatBufferViews",
      "target": 34963
    },
    {
      "buffer": 0,
      "byteLength": 386544,
      "byteOffset": 779892,
      "byteStride": 8,
      "name": "floatBufferViews",
      "target": 34962
    },
    {
      "buffer": 0,
      "byteLength": 1159632,
      "byteOffset": 1166436,
      "byteStride": 12,
      "name": "floatBufferViews",
      "target": 34962
    },
    {
      "buffer": 0,
      "byteLength": 773088,
      "byteOffset": 2326068,
      "byteStride": 16,
      "name": "floatBufferViews",
      "target": 34962
    }
  ],
  "buffers": [
    {
      "byteLength": 3099156,
      "uri": "scene.bin"
    }
  ],
  "images": [
    {
      "uri": "textures/Engine_baseColor.png"
    },
    {
      "uri": "textures/Engine_metallicRoughness.png"
    },
    {
      "uri": "textures/Engine_emissive.jpeg"
    },
    {
      "uri": "textures/Engine_normal.png"
    },
    {
      "uri": "textures/Detail_baseColor.png"
    },
    {
      "uri": "textures/Detail_metallicRoughness.png"
    },
    {
      "uri": "textures/Detail_emissive.jpeg"
    },
    {
      "uri": "textures/Detail_normal.png"
    },
    {
      "uri": "textures/Fuselage_baseColor.png"
    },
    {
      "uri": "textures/Fuselage_metallicRoughness.png"
    },
    {
      "uri": "textures/Fuselage_emissive.jpeg"
    },
    {
      "uri": "textures/Fuselage_normal.png"
    },
    {
      "uri": "textures/Cockpit_baseColor.png"
    },
    {
      "uri": "textures/Cockpit_metallicRoughness.png"
    },
    {
      "uri": "textures/Cockpit_emissive.jpeg"
    },
    {
      "uri": "textures/Cockpit_normal.png"
    }
  ],
  "materials": [
    {
      "alphaMode": "BLEND",
      "doubleSided": true,
      "emissiveFactor": [
        1.0,
        1.0,
        1.0
      ],
      "emissiveTexture": {
        "index": 2
      },
      "name": "Engine",
      "normalTexture": {
        "index": 3
      },
      "occlusionTexture": {
        "index": 1
      },
      "pbrMetallicRoughness": {
        "baseColorTexture": {
          "index": 0
        },
        "metallicRoughnessTexture": {
          "index": 1
        }
      }
    },
    {
      "alphaMode": "BLEND",
      "doubleSided": true,
      "emissiveFactor": [
        1.0,
        1.0,
        1.0
      ],
      "emissiveTexture": {
        "index": 6
      },
      "name": "Detail",
      "normalTexture": {
        "index": 7
      },
      "occlusionTexture": {
        "index": 5
      },
      "pbrMetallicRoughness": {
        "baseColorTexture": {
          "index": 4
        },
        "metallicRoughnessTexture": {
          "index": 5
        }
      }
    },
    {
      "alphaMode": "BLEND",
      "doubleSided": true,
      "emissiveFactor": [
        1.0,
        1.0,
        1.0
      ],
      "emissiveTexture": {
        "index": 10
      },
      "name": "Fuselage",
      "normalTexture": {
        "index": 11
      },
      "occlusionTexture": {
        "index": 9
      },
      "pbrMetallicRoughness": {
        "baseColorTexture": {
          "index": 8
        },
        "metallicRoughnessTexture": {
          "index": 9
        }
      }
    },
    {
      "alphaMode": "BLEND",
      "doubleSided": true,
      "emissiveFactor": [
        1.0,
        1.0,
        1.0
      ],
      "emissiveTexture": {
        "index": 14
      },
      "name": "Cockpit",
      "normalTexture": {
        "index": 15
      },
      "occlusionTexture": {
        "index": 13
      },
      "pbrMetallicRoughness": {
        "baseColorTexture": {
          "index": 12
        },
        "metallicRoughnessTexture": {
          "index": 13
        }
      }
    }
  ],
  "meshes": [
    {
      "name": "defaultMaterial",
      "primitives": [
        {
          "attributes": {
            "NORMAL": 1,
            "POSITION": 0,
            "TANGENT": 2,
            "TEXCOORD_0": 3
          },
          "indices": 4,
          "material": 3,
          "mode": 4
        }
      ]
    },
    {
      "name": "defaultMaterial",
      "primitives": [
        {
          "attributes": {
            "NORMAL": 6,
            "POSITION": 5,
            "TANGENT": 7,
            "TEXCOORD_0": 8
          },
          "indices": 9,
          "material": 2,
          "mode": 4
        }
      ]
    },
    {
      "name": "defaultMaterial",
      "primitives": [
        {
          "attributes": {
            "NORMAL": 11,
            "POSITION": 10,
            "TANGENT": 12,
            "TEXCOORD_0": 13
          },
          "indices": 14,
          "material": 1,
          "mode": 4
        }
      ]
    },
    {
      "name": "defaultMaterial",
      "primitives": [
        {
          "attributes": {
            "NORMAL": 16,
            "POSITION": 15,
            "TANGENT": 17,
            "TEXCOORD_0": 18
          },
          "indices": 19,
          "material": 0,
          "mode": 4
        }
      ]
    }
  ],
  "nodes": [
    {
      "children": [
        1
      ],
      "matrix": [
        1.0,
        0.0,
        0.0,
        0.0,
        0.0,
        2.220446049250313e-16,
        -1.0,
        0.0,
        0.0,
        1.0,
        2.220446049250313e-16,
        0.0,
        0.0,
        0.0,
        0.0,
        1.0
      ],
      "name": "Sketchfab_model"
    },
    {
      "children": [
        2,
        4,
        6,
        8
      ],
      "matrix": [
        1.0,
        0.0,
        0.0,
        0.0,
        0.0,
        -4.371139006309477e-08,
        0.999999999999999,
        0.0,
        0.0,
        -0.999999999999999,
        -4.371139006309477e-08,
        0.0,
        0.0,
        0.0,
        0.0,
        1.0
      ],
      "name": "Collada visual scene group"
    },
    {
      "children": [
        3
      ],
      "matrix": [
        100.0,
        0.0,
        0.0,
        0.0,
        0.0,
        -1.6e-05,
        -100.0,
        0.0,
        0.0,
        100.0,
        -1.6e-05,
        0.0,
        0.0,
        0.0,
        0.0,
        1.0
      ],
      "name": "Cockpit"
    },
    {
      "mesh": 0,
      "name": "defaultMaterial"
    },
    {
      "children": [
        5
      ],
      "matrix": [
        100.0,
        0.0,
        0.0,
        0.0,
        0.0,
        -1.6e-05,
        -100.0,
        0.0,
        0.0,
        100.0,
        -1.6e-05,
        0.0,
        0.0,
        0.0,
        0.0,
        1.0
      ],
      "name": "Fuselage"
    },
    {
      "mesh": 1,
      "name": "defaultMaterial"
    },
    {
      "children": [
        7
      ],
      "matrix": [
        100.0,
        0.0,
        0.0,
        0.0,
        0.0,
        -1.6e-05,
        -100.0,
        0.0,
        0.0,
        100.0,
        -1.6e-05,
        0.0,
        0.0,
        0.0,
        0.0,
        1.0
      ],
      "name": "Detail"
    },
    {
      "mesh": 2,
      "name": "defaultMaterial"
    },
    {
      "children": [
        9
      ],
      "matrix": [
        100.0,
        0.0,
        0.0,
        0.0,
        0.0,
        -1.6e-05,
        -100.0,
        0.0,
        0.0,
        100.0,
        -1.6e-05,
        0.0,
        0.0,
        0.0,
        0.0,
        1.0
      ],
      "name": "Engine"
    },
    {
      "mesh": 3,
      "name": "defaultMaterial"
    }
  ],
  "samplers": [
    {
      "magFilter": 9729,
      "minFilter": 9987,
      "wrapS": 10497,
      "wrapT": 10497
    }
  ],
  "scene": 0,
  "scenes": [
    {
      "name": "Sketchfab_Scene",
      "nodes": [
        0
      ]
    }
  ],
  "textures": [
    {
      "sampler": 0,
      "source": 0
    },
    {
      "sampler": 0,
      "source": 1
    },
    {
      "sampler": 0,
      "source": 2
    },
    {
      "sampler": 0,
      "source": 3
    },
    {
      "sampler": 0,
      "source": 4
    },
    {
      "sampler": 0,
      "source": 5
    },
    {
      "sampler": 0,
      "source": 6
    },
    {
      "sampler": 0,
      "source": 7
    },
    {
      "sampler": 0,
      "source": 8
    },
    {
      "sampler": 0,
      "source": 9
    },
    {
      "sampler": 0,
      "source": 10
    },
    {
      "sampler": 0,
      "source": 11
    },
    {
      "sampler": 0,
      "source": 12
    },
    {
      "sampler": 0,
      "source": 13
    },
    {
      "sampler": 0,
      "source": 14
    },
    {
      "sampler": 0,
      "source": 15
    }
  ]
}
